<svg width="20" height="22" viewBox="0 0 20 22" fill="none" xmlns="http://www.w3.org/2000/svg">
<path d="M13.7137 12.2071L11.645 11L13.7136 9.79289C13.9864 9.63377 14.0809 9.27953 13.9246 9.00171C13.7684 8.72389 13.4206 8.62768 13.148 8.78683L11.0691 9.99985V7.57972C11.0691 7.25953 10.8143 7 10.5 7C10.1857 7 9.93092 7.25953 9.93092 7.57972V9.99985L7.85204 8.78683C7.5793 8.62765 7.23159 8.72389 7.07537 9.00171C6.91916 9.27953 7.01363 9.63374 7.28633 9.79289L9.35505 11L7.28636 12.2071C7.01363 12.3663 6.91918 12.7205 7.0754 12.9983C7.23161 13.2761 7.5793 13.3723 7.85206 13.2132L9.93092 12.0001V14.4203C9.93092 14.7405 10.1857 15 10.5 15C10.8143 15 11.0691 14.7405 11.0691 14.4203V12.0001L13.148 13.2132C13.4207 13.3723 13.7684 13.2761 13.9246 12.9983C14.0809 12.7205 13.9864 12.3663 13.7137 12.2071Z" fill="white"/>
<path d="M17.4343 4.43183L12.4304 1.56539C11.1145 0.811558 9.47938 0.811519 8.16337 1.56539L3.15946 4.43183C1.82747 5.19488 1.00001 6.62269 1.00001 8.15804V13.8419C1.00001 15.3773 1.82747 16.8051 3.1595 17.5682L8.1634 20.4346C9.47942 21.1885 11.1144 21.1885 12.4304 20.4346L17.4343 17.5682C18.7663 16.8051 19.5938 15.3773 19.5938 13.8419V8.15804C19.5938 6.62265 18.7663 5.19484 17.4343 4.43183ZM18.0313 13.8419C18.0313 14.8185 17.5049 15.7266 16.6577 16.2119L11.6539 19.0784C10.8169 19.5579 9.77692 19.5579 8.93989 19.0784L3.93598 16.2119C3.0888 15.7266 2.56251 14.8185 2.56251 13.8419V8.15804C2.56251 7.18148 3.0888 6.27335 3.93602 5.78804L8.93993 2.9216C9.77688 2.44214 10.8169 2.44207 11.6539 2.9216L16.6578 5.78804C17.5049 6.27335 18.0313 7.18148 18.0313 8.15804V13.8419Z" fill="white" stroke-width="0.5"/>
</svg>
